<svg width="24" height="24" viewBox="0 0 24 24" xmlns="http://www.w3.org/2000/svg" fill="currentColor">
    <path d="M3 6.75C3 5.50736 4.00736 4.5 5.25 4.5H9.43934C10.0353 4.5 10.6068 4.73661 11.0287 5.15851L12.0915 6.22128C12.2321 6.36194 12.4227 6.44096 12.6213 6.44096H18.75C19.9926 6.44096 21 7.44831 21 8.69096V17.25C21 18.4926 19.9926 19.5 18.75 19.5H5.25C4.00736 19.5 3 18.4926 3 17.25V6.75Z"/>
    <path d="M6.75 9.75H10.5V11.25H6.75V9.75Z" fill="#000000" fill-opacity="0.18"/>
    <path d="M6.75 12.75H11.25V14.25H6.75V12.75Z" fill="#000000" fill-opacity="0.18"/>
    <path d="M16.5 8.25L19.5 10.125V13.875L16.5 15.75L13.5 13.875V10.125L16.5 8.25ZM15 10.9594V13.0406L16.5 13.9778L18 13.0406V10.9594L16.5 10.0222L15 10.9594Z"/>
</svg>
